<?xml version="1.0" standalone="no"?>
<!DOCTYPE svg PUBLIC "-//W3C//DTD SVG 1.1//EN" "http://www.w3.org/Graphics/SVG/1.1/DTD/svg11.dtd" >
<!--
2013-9-30: Created.
-->
<svg>
<metadata>
Created by iconfont
</metadata>
<defs>

<font id="iconfont" horiz-adv-x="1024" >
  <font-face
    font-family="iconfont"
    font-weight="500"
    font-stretch="normal"
    units-per-em="1024"
    ascent="896"
    descent="-128"
  />
    <missing-glyph />
    
    <glyph glyph-name="chushihuashezhi" unicode="&#58958;" d="M754.54359215 597.84534932l-187.62782437-187.62782438-128.94690796 128.94690799L185.47721484 286.66019732999996l26.04123206-26.0412321 226.45041292 226.45041289 128.94690796-128.94690793 213.66905644 213.6690564 30.65007313-30.61229823 31.98487833 119.3010753-119.33885029-31.98487828 30.66266676-30.65007606z m0 0M953.75648874 807.84999422H548.49298228v36.84557405c0 20.36202516-16.48354587 36.84557104-36.84557104 36.84557102s-36.84557104-16.48354587-36.84557105-36.84557102v-36.84557405H69.55092441c-20.36202516 0-36.84557104-16.49613651-36.84557104-36.83297744v-626.32434495c0-20.36202516 16.48354587-36.83298041 36.84557104-36.83297744h168.95319013l-158.16144183-158.16144182c-14.39319467-14.39319467-14.39319467-37.70186014 0-52.09505479 7.19030198-7.19030198 16.62206085-10.79174831 26.0538227-10.79174832 9.41916821 0 18.85093007 3.60144634 26.0412321 10.79174832l210.25649356 210.25649661H680.61319201l210.25649663-210.25649661c7.19030198-7.19030198 16.62206085-10.79174831 26.04122901-10.79174832s18.85093007 3.60144634 26.05382277 10.79174832c14.39319467 14.39319467 14.39319467 37.70186014 0 52.09505479l-158.16143883 158.16144182h168.95318715c20.36202516 0 36.84557104 16.47095227 36.84557405 36.83297744V771.0044232c0 20.34943449-16.48354587 36.84557104-36.84557405 36.84557102zM106.39649541 181.53824581000003V734.17144581h810.52701589v-552.6332H106.39649541z m0 0"  horiz-adv-x="1024" />

    
    <glyph glyph-name="baoxiuguanli" unicode="&#58959;" d="M821.64493787 602.2353992000001v92.08244911h-34.54272285v69.07363914h-34.5427256v69.08544568h-483.55090217v-69.08544568h-34.54272284v-69.07363914h-34.54272281v-92.08244911l-172.69000399-287.71042389v-345.53348156s0-34.54272285 34.54272288-34.54272289h898.0163585s34.54272285 0 34.54272282 34.54272289v345.53348156l-172.69000394 287.71042389z m0-134.25148565l71.47014572-119.06968622h-71.47014572v119.06968622zM303.56311664 797.93421031h414.47726295v-34.54272286H303.56311664v34.54272286z m-34.54272286-69.07363916h483.55090211v-34.54272284h-483.55090211v34.54272284z m-34.54272286-69.08544566h552.6245441v-310.86089816h-103.6163648c-19.08939859 0-34.54272285-15.44151775-34.54272288-34.53091915v-103.61636481H372.63675858v103.75803194c0 19.08939859-15.45332425 34.54272285-34.54272281 34.54272284h-103.61636485V659.7751254899999z m-34.54272279-191.79121194v-118.92802191H128.55924619l71.37570194 118.92802191z m725.33815826-464.46150344H96.3303898v276.44803582h207.23272684V176.22422053000003c0-19.08939859 15.44151775-34.54272285 34.53091913-34.54272279h345.40361816c19.08939859 0 34.54272285 15.45332425 34.54272566 34.54272279v103.61636484h207.2327268v-276.31817526z m0 0"  horiz-adv-x="1024" />

    
    <glyph glyph-name="mima" unicode="&#58960;" d="M926.14670819 556.56014622H753.45670421v69.07363912c0 133.29524653-108.48020593 241.77545248-241.77545243 241.77545248s-241.77545248-108.48020593-241.77544968-241.77545248v-69.07363912H97.20399163c-19.08939859 0-34.54272285-15.45332425-34.54272285-34.54272572v-587.16726411c0-19.08939859 15.45332425-34.54272285 34.54272285-34.54272562h828.94271656c19.08939859 0 34.54272285 15.45332425 34.54272568 34.54272562v587.16726411c0 19.08939859-15.45332425 34.54272285-34.54272568 34.54272572z m-587.16726412 69.07363912c0 95.22269407 77.46730988 172.7018105 172.69000397 172.7018105s172.7018105-77.46730988 172.70181051-172.7018105v-69.07363912H338.97944407v69.07363912z m552.62454123-656.25271263H131.74671445v518.09362496h759.86907739v-518.09362496z m0 0M511.66944804 116.18174296999996c42.84194973 0 77.71522452 34.87327482 77.71522457 77.71522451v69.08544567c0 42.83014319-34.87327482 77.71522452-77.71522457 77.71522456s-77.71522452-34.87327482-77.71522452-77.71522456v-69.08544567c0.01180653-42.84194973 34.88508135-77.71522452 77.71522452-77.71522451z m-25.90114023 146.78886648c0 14.27277794 11.64016604 25.9011403 25.91294397 25.90114029s25.9011403-11.62835948 25.90114027-25.90114029v-69.08544565c0-14.27277794-11.64016604-25.9011403-25.90114027-25.90114028s-25.91294394 11.62835948-25.91294397 25.90114028v69.08544565z m0 0"  horiz-adv-x="1024" />

    
    <glyph glyph-name="guanliquanxianshezhi" unicode="&#58961;" d="M916.91091765 807.04407664H106.39649541c-40.69886903 0-73.69114203-32.99227602-73.69114204-73.69114205v-626.31175145c0-40.68627539 36.19076206-63.2519825 73.69114204-73.67854841 0 0 331.57236438-73.69114203 405.26350649-73.691145 73.67855145 0 405.2635065 73.69114203 405.2635094 73.691145 42.77662662 13.66283284 73.69114203 32.99227602 73.6911421 73.67854841V733.36552822c-0.01259363 40.68627539-33.01746034 73.67855145-73.70373575 73.67854842zM106.39649541 112.51890995999997V733.36552822h440.44687377c-93.07095677-194.89367913-125.30768373-321.44801863-126.75581666-327.11463197-1.37258009-5.50291109-0.13851801-11.33322357 3.34959467-15.79095901 3.48811558-4.4829197 8.85250866-7.08956193 14.53171263-7.08956194h121.02624421c-11.72359024-33.99967379-32.08561838-99.88348276-47.09584412-183.81230423-81.42291937-0.03777789-162.80806373 23.03162958-237.59474998 69.40970248-8.56287911 5.25105937-19.97165847 2.65701076-25.3612388-5.96883048-5.36439308-8.6762128-2.69478868-20.00943639 5.93105557-25.39901674 78.94220447-48.85878788 163.37472327-73.96817803 251.01832481-75.05112855-5.90586834-39.82998628-10.28804795-82.82068372-11.91247673-127.93951021-66.95417189 6.76215743-247.93316949 43.24254606-369.50088896 70.22821369-9.09176375 2.6444201-14.92207929 5.6288354-18.08279041 7.6814087z m810.51442224 0.07555278c-3.38737557-1.91405535-9.35620606-4.68439983-19.46796105-8.05918171-120.63587753-26.75900323-298.69342208-62.63495138-366.57943587-69.80006918 1.72516885 45.40845315 6.47253083 88.65099922 12.6554351 128.69505932 76.63778241 5.17550659 150.68151324 29.13897803 220.44380451 71.41190432 8.70139709 5.28883727 11.4717415 16.62206085 6.22068221 25.32346095-5.25105937 8.70139709-16.58428601 11.44655731-25.28568303 6.18290425-61.8164432-37.45001147-128.05284098-58.93276501-194.89368218-64.93937644 21.21831426 113.94927293 51.95653682 192.35000211 52.4224593 193.5336927 2.26664409 5.6666133 1.58665089 12.10136626-1.83849953 17.16353909a18.42530485 18.42530485 0 0 1-15.26207745 8.09695968h-123.04103664c13.85171937 46.4284415 51.7676503 160.8310462 125.67286317 313.14957887h328.95313146v-620.75847185z m0 0M309.02195185 475.47171223c30.54933603 0 55.25576591 24.7567984 55.25576588 55.25576591 0 30.51155812-24.7064299 55.26835657-55.25576588 55.26835657s-55.26835657-24.7567984-55.26835659-55.26835657c0-30.49896452 24.71902052-55.25576591 55.26835659-55.25576591z m0 0M714.28546129 475.47171223c30.54933603 0 55.26835657 24.7567984 55.26835653 55.25576591 0 30.51155812-24.71902052 55.26835657-55.26835653 55.26835657s-55.26835657-24.7567984-55.26835653-55.26835657c0-30.49896452 24.71902052-55.25576591 55.26835653-55.25576591z m0 0"  horiz-adv-x="1024" />

    
    <glyph glyph-name="dianshangxitong" unicode="&#58962;" d="M1014.88034512 562.3471740699999c-0.28962658 0.67999324-0.21407079 1.37258009-0.35258877 2.05257037L880.32978899 832.79568215c-9.06657946 17.62945857-27.45158707 29.71823122-48.682495 29.71823118H190.47642855c-20.9790562 0-39.14999303-11.87470183-48.2795377-29.17675592L6.16042391 561.30199846c-5.54068594-12.59246998-9.8221285-26.33085869-9.82212852-41.01367986 0-5.83031555 1.00739775-11.44655731 2.19109134-16.98724321 11.29544567-52.63653004 53.85800153-93.68798783 107.32563345-102.75456735v-459.08373007c0-20.36202516 16.47095227-36.84557104 36.83297737-36.84557107h736.83587386c20.36202516 0 36.84557104 16.48354587 36.845571 36.84557107v459.08373007c54.47503258 9.24287535 97.81831877 51.59135443 108.15673827 105.6382425 0.21407079 1.22146851 0.28962658 2.51849279 0.46591952 3.73996431 0.64221535 4.10514668 0.85628913 8.34880833 1.14591565 12.59246997-0.52888461 14.43097255-5.77994399 27.37603428-11.25767073 39.82998925z m-172.18945409-584.03882508H179.53356858v430.44844941c16.87391251 7.16511776 31.77080457 17.88131026 44.22475956 30.9397027 8.63843494-9.06657946 18.59908141-16.58428601 29.46638555-22.91829884v-291.10015981c0-20.36202516 16.48354587-36.84557104 36.84557095-36.845574h442.10907753c20.36202516 0 36.84557104 16.48354587 36.84557104 36.845574v291.10015981c10.85471049 6.3340129 20.82794763 13.85171937 29.46638551 22.91829884 12.45395502-13.05839244 27.35084704-23.7745849 44.21216591-30.9397027v-430.44844941z m-515.77503528 184.20267088v236.56216801c34.71744492 1.93923962 65.8712184 16.94946537 88.43692543 40.62331322 24.17754526-25.36123885 58.0638853-41.37886227 95.77833907-41.37886225 37.70186014 0 71.58820022 16.0176234 95.76574545 41.37886225 22.55311648-23.67384489 53.71948353-38.67147997 88.43692547-40.62331322v-236.56216801H326.91585575z m567.37898332 309.49776406c-30.04563566 0-54.61354755 22.66644718-58.25277184 51.74246297v-0.25184865c-2.45553066 18.38500759-18.30945484 32.66487154-37.38704926 32.66487154-18.63685632 0-34.13818876-13.56209279-37.12260399-31.34266295-0.03777789-0.28962658-0.07555584 1.14591568-0.13851794 3.73996425-1.25924642-31.36784723-26.98566764-56.55279023-58.68091639-56.55278716-31.19155138 0-56.55279023 24.42939392-58.56758564 55.1172449-0.03777789-1.80072467-0.03777789-2.94663734-0.07555282-2.77034143-2.44293997 18.38500759-18.30945484 32.66487154-37.38704925 32.66486853-18.63685632 0-34.13818876-13.56209279-37.13519767-31.34266v0.13851799c-2.65701076-30.07082294-27.70343579-53.82022362-58.42906767-53.82022364-30.36044954 0-55.15502588 23.17014752-58.29054971 52.74986374-2.65701076 18.17093681-18.34722973 32.27450494-37.27371552 32.27450191-18.63685632 0-34.13818876-13.56209279-37.12260703-31.34266-0.03777789-0.2518487-0.07555584 1.00739775-0.13851496 3.31181975-1.00739775-31.55673376-26.87233388-56.99352539-58.75647214-56.9935254-30.25970948 0-55.00391424 23.06940747-58.2779591 52.46023717v-0.11333374c-2.44293997 18.38500759-18.30945484 32.67746221-37.38704631 32.67746222-18.63685632 0-34.13818876-13.56209279-37.13519764-31.34266-0.03777789-0.21407079-0.07555584 0.83110185-0.11333368 2.44294001-1.4733202-31.15377349-27.12418262-56.12464569-58.68091631-56.12464566-30.00786075 0-54.57576971 22.66644718-58.21499692 51.6920945l132.58613217 265.12189285h617.61035433l132.58613219-265.12189285c-3.63922426-29.01305375-28.21972979-51.67950386-58.2149969-51.67950085z m0 0"  horiz-adv-x="1024" />

    
    <glyph glyph-name="guanjiaguanli" unicode="&#58963;" d="M500.24177988 394.8019782c47.76481791 38.01352257 78.48257877 96.46226743 78.48257879 162.10052369 0 114.27667871-92.95605091 207.23272677-207.23272961 207.23272956s-207.23272677-92.95605091-207.23272677-207.23272956c0-66.3465834 31.47330864-125.3383781 80.11172827-163.31648396-126.38906101-51.36547825-215.8034786-175.32261867-215.80347863-319.92747649v-35.92396051c0-19.08939859 15.45332425-34.54272285 34.54272286-34.54272282h621.70998979c19.08939859 0 34.54272285 15.45332425 34.54272282 34.54272282v35.92396051c0 145.84443115-91.00815315 270.56892309-219.12080752 321.14343676z m-266.89743193 162.10052369c0 76.19232253 61.95495857 138.15908765 138.15908766 138.15908764s138.15908765-61.9667651 138.15908764-138.15908764c0-75.21247043-60.47927993-136.32924396-135.32578158-137.88755995-0.12986063 0-0.23610816 0.03541677-0.37777527 0.03541394-1.21596027 0-2.42011685-0.17708107-3.64788081-0.17708106-75.6138559 0.64930017-136.96673762 62.23829004-136.96673764 138.02922707z m-135.69175034-484.63700184v1.38123768c0 150.94438042 121.70230099 273.78000436 272.09182787 276.08206433 0.5666601 0 1.14512673-0.0708336 1.75901013-0.07083355 1.41665164 0 2.7978893 0.20069137 4.21454371 0.20069419 151.54645729-0.94443539 274.55916239-124.4647735 274.55916243-276.21192497l-552.62454414-1.38123768z m0 0M683.43862689 624.90184785h310.84909444v-69.0854457H683.43862689zM683.43862689 452.20003737h310.84909444v-69.07363918H683.43862689zM788.43622939 279.49822686000005h205.85149194v-69.07363914H788.43622939z"  horiz-adv-x="1024" />

    
    <glyph glyph-name="dingzhiAPPguanli" unicode="&#58964;" d="M700.76901814 867.40923782H320.83447807c-38.15518972 0-69.08544565-30.93025877-69.08544566-69.08544572v-828.94271939c0-38.14338318 30.93025877-69.07364198 69.08544566-69.07364194H700.76901814c38.14338318 0 69.07364198 30.93025877 69.07363919 69.07364194V798.3237921c0 38.15518972-30.93025877 69.08544565-69.07363919 69.08544572z m-241.78725898-51.81408427h103.61636483c9.55060115 0 17.27136144-7.72076027 17.27136143-17.27136145 0-9.53879744-7.72076027-17.27136144-17.27136143-17.27136143h-103.61636483c-9.55060115 0-17.27136144 7.73256396-17.2713614 17.27136143 0.01180653 9.55060115 7.73256396 17.27136144 17.2713614 17.27136145z m51.81408709-880.74499716c-28.67541932 0-51.81408428 23.13866493-51.81408709 51.80227774 0 28.67541932 23.13866493 51.81408428 51.81408709 51.81408428 28.6636128 0 51.80228054-23.13866493 51.80227774-51.81408428 0-28.6636128-23.12686121-51.80228054-51.80227774-51.80227774z m215.87430937 138.15908484H294.92153407V729.2501501300001h431.73681784v-656.2409089z m0 0M79.05902836 383.89374965c0 68.87294781 21.3560446 134.65287114 61.73065422 190.17386609 8.4290847 11.60474927 5.86730354 27.790011-5.70202899 36.21909567-11.67558283 8.37005765-27.790011 5.73744576-36.19548264-5.72563922-46.87940957-64.49312948-71.63542309-140.79169958-71.63542308-220.65551602 0-79.93464725 24.75601076-156.23322015 71.63542308-220.72634676 5.06453531-6.94159947 12.95057013-10.6603139 20.97826935-10.6603139 5.26522663 0 10.58948032 1.6173458 15.21721329 4.9937017 11.56933247 8.37005765 14.13111364 24.55531937 5.70202899 36.16006861-40.38641615 55.56821543-61.73065694 121.34813879-61.73065422 190.22108383z m0 0M169.72482026 383.89374965c0 43.37319305 11.97071797 85.74292368 34.63716668 122.44604497 7.5200661 12.13599538 3.74232468 28.13236945-8.39366794 35.61701883-12.27765967 7.5554829-28.16778343 3.77774147-35.65243554-8.37005765-27.73098394-44.93151183-42.3933409-96.66295878-42.39334092-149.69300615 0-53.56129068 14.94568843-105.77676048 43.17250166-150.90896362 4.88745413-7.89784135 13.35195565-12.2068261 21.99353825-12.20682614 4.68676001 0 9.44435361 1.28679383 13.69431132 3.97843278 12.14779908 7.5554829 15.81929298 23.54005047 8.22839331 35.6878524-23.07963794 36.89200613-35.28646686 79.59228875-35.28646682 123.44950458z m0 0M922.71132524 604.54926565c-8.3936679 11.46308493-24.51990258 14.09569685-36.19548543 5.72563925-11.56933247-8.4290847-14.13111364-24.61434641-5.70202894-36.23089937 40.37461244-55.52099216 61.73065694-121.28911173 61.73065697-190.1620596 0-68.87294781-21.34423808-134.65287114-61.73065697-190.23289312-8.4290847-11.60474927-5.86730354-27.790011 5.70202894-36.16006867 4.61592645-3.36455219 9.95198668-4.99370173 15.20540959-4.9937017 8.02769917 0 15.92554055 3.70690787 20.97827211 10.66031389 46.87940957 64.49312948 71.63542309 140.79169958 71.6354203 220.7263496 0.01180653 79.88742673-24.74420704 156.17419028-71.62361657 220.66731972z m0 0M861.27580625 533.5867558c-7.48464933 12.13599538-23.37477593 15.92554055-35.65243559 8.37005765-12.13599538-7.48464933-15.92554055-23.4692197-8.3936679-35.61701883 22.66644868-36.70311847 34.63716665-79.06104544 34.63716667-122.44604497 0-43.85721589-12.2068261-86.54569473-35.28646685-123.44950458-7.59089969-12.14779908-3.91940577-28.13236945 8.22839335-35.6878524 4.24995773-2.70344546 9.00755132-3.9784328 13.69431131-3.97843278 8.64158259 0 17.10608404 4.32079127 21.9935382 12.20682614 28.22681051 45.13220596 43.17250171 97.34767578 43.17250172 150.90896362 0.01180653 53.01824084-14.66235977 104.76149149-42.39334091 149.69300615z m0 0"  horiz-adv-x="1024" />

    
    <glyph glyph-name="chuangjianjiguanlishequ" unicode="&#58965;" d="M511.28810711 795.51525153l392.9791311-343.54948625v-500.864712H707.77095604v392.97913426H314.79182494v-392.97913426H118.30897279v500.89157522l392.97913432 343.52262303m0 98.75183683c-4.37882313 0-8.78450946-1.71929086-12.35741363-5.14444245L46.19272972 493.33623318c-5.910065-5.68172286-6.4876418-14.35877627-6.48764182-22.9955332v-558.54158923s0-39.30194244 39.30194243-39.30194244h314.37524627v392.97913117h235.78479459v-392.97913117h314.38867627c39.30194244 0 39.30194244 39.30194244 39.30194242 39.30194244v558.54158923c0 8.63675698-0.57757361 17.31380716-6.48763859 22.9955332L523.64551748 889.12264591c-3.53260771 3.41172165-7.95172723 5.14444567-12.35741037 5.14444245z m0 0"  horiz-adv-x="1024" />

    
    <glyph glyph-name="guanjiagongneng" unicode="&#58966;" d="M861.32775029 402.05760318v-405.26350653h-773.68144484V733.64256115h589.46618033v73.67855147H50.81332805c-20.36202516 0-36.84557104-16.49613651-36.84557408-36.84557107v-810.52701593c0-20.36202516 16.48354587-36.84557104 36.84557408-36.84557101h847.35999328c20.36202516 0 36.84557104 16.48354587 36.84557105 36.84557101v442.10907756h-73.69114209z m0 0M1008.69744377 819.98913834c0 13.34801903-10.82952621 24.17754526-24.1775452 24.17754528-6.3340129 0-11.83692393-2.74516019-16.18132573-6.74956381l-475.06357854-533.44227475-184.5678533 183.38415962-128.22913683-125.59731029h52.23357272l259.83305557-242.56877641 512.76543582 689.06003658c2.01479546 3.52589052 3.38737557 7.41696639 3.38737549 11.73618378z m0 0"  horiz-adv-x="1024" />

    
    <glyph glyph-name="guanjiafenyong" unicode="&#58967;" d="M355.36539719 538.88739922c-19.08939859 0-34.53091913-15.44151775-34.53091912-34.53091908s15.44151775-34.54272285 34.53091912-34.54272288h120.88772344v-86.35680712c0-19.08939859 15.45332425-34.54272285 34.54272562-34.54272281s34.53091913 15.45332425 34.53091628 34.54272281v86.35680712h120.88772627c19.08939859 0 34.54272285 15.44151775 34.54272279 34.54272288s-15.45332425 34.53091913-34.54272279 34.53091908h-120.88772627v51.81408429h120.88772627c19.08939859 0 34.54272285 15.45332425 34.54272279 34.5427228s-15.45332425 34.54272285-34.54272279 34.5427229h-120.88772627v2.97497037l110.77046225 110.77046218c13.48181346 13.49362 13.48181346 35.34549388 0 48.83911388-13.49362 13.49362-35.35729762 13.49362-48.83911392 0l-96.46226461-96.46226465-96.46226742 96.46226465c-13.49362 13.49362-35.35729762 13.49362-48.8391139 0-13.49362-13.49362-13.49362-35.34549388 0-48.83911388l110.77046221-110.77046218v-2.97497037h-120.88772623c-19.08939859 0-34.53091913-15.45332425-34.53091632-34.5427229s15.44151775-34.54272285 34.53091632-34.5427228h120.88772623v-51.81408429H355.36539719z m0 0M821.64493787 629.51777713c-10.45962253 18.01510542-29.89137958 30.25734838-52.21546978 30.25734836h-16.86997867c-19.08939859 0-34.53091913-15.45332425-34.53091636-34.54272564s15.44151775-34.54272285 34.53091636-34.54272286h11.56933522l132.58691649-241.90531025H683.49765393c-19.08939859 0-34.54272285-15.45332425-34.54272288-34.54272288v-103.61636476H372.63675858v103.75802908c0 19.08939859-15.45332425 34.53091913-34.54272281 34.53091915H124.6870609l131.58345415 241.77544966h12.74987873c19.08939859 0 34.54272285 15.45332425 34.54272286 34.54272286s-15.45332425 34.54272285-34.54272286 34.54272564h-18.1449632c-21.45048837 0-40.20933505-11.23878053-50.94048245-28.06153593l-172.69000679-317.33028138v-310.86089807c0-38.14338318 30.96567557-69.08544565 69.08544846-69.08544578h828.94271659c38.17879997 0 69.07364198 30.93025877 69.07364199 69.08544578v310.86089807l-172.70181051 315.13446895zM96.3303898 3.52241011000001v276.31817526h207.23272684v-103.75802915c0-19.08939859 15.44151775-34.54272285 34.53091913-34.54272285h345.40361816c19.08939859 0 34.54272285 15.45332425 34.54272566 34.54272285v103.6163648h207.2327268v-276.17651091H96.3303898z m0 0"  horiz-adv-x="1024" />

    
    <glyph glyph-name="duanwenbenxiaoxi" unicode="&#58968;" d="M308.707141 420.48038863c30.51155812 0 55.25576591 24.7567984 55.25576591 55.26835958s-24.7567984 55.25576591-55.25576591 55.25576288c-30.51155812 0-55.26835657-24.7567984-55.26835653-55.25576288 0-30.51155812 24.7567984-55.26835657 55.26835653-55.26835958z m0 0M511.33260042 420.48038863c30.51155812 0 55.25576591 24.7567984 55.25576287 55.26835958s-24.7567984 55.25576591-55.25576287 55.25576288c-30.51155812 0-55.26835657-24.7567984-55.26835957-55.25576288 0.01259363-30.51155812 24.7567984-55.26835657 55.26835957-55.26835958z m0 0M713.97065044 420.48038863c30.51155812 0 55.25576591 24.7567984 55.25576296 55.26835958s-24.7567984 55.25576591-55.25576296 55.25576288c-30.51155812 0-55.26835657-24.7567984-55.26835952-55.25576288 0-30.51155812 24.7567984-55.26835657 55.26835952-55.26835958z m0 0M971.8644634 844.16668362H50.81332805c-20.36202516 0-36.84557104-16.49613651-36.84557408-36.845571v-663.15732245c0-20.36202516 16.48354587-36.84557104 36.84557408-36.84557101h331.57236436L511.33260042-76.88445476000004l128.94690495 184.21526455h331.58495803c20.36202516 0 36.83298041 16.48354587 36.83298037 36.84557101V807.32111262c0 20.34943449-16.47095227 36.84557104-36.83298037 36.845571z m-36.84557102-663.15732243H601.92283925l-90.59023883-129.41283043-90.5902419 129.41283043H87.65889909V770.47554155h847.35999329v-589.46618036z m0 0"  horiz-adv-x="1024" />

    
    <glyph glyph-name="pingtaizhanghaoguanli" unicode="&#58969;" d="M959.80402551-13.052430670000035c-19.0539846 0-34.53091913 15.48874105-34.53091912 34.54272561 0 19.06578834 15.47693453 34.54272285 34.53091912 34.54272288 19.08939859 0 34.54272285 15.45332425 34.54272287 34.54272284L867.99310133 785.4794695c-5.73744576 36.72672874-37.37602894 64.89451501-75.7555203 64.89451499-0.12986063 0-0.12986063 0.0708336-0.23610807 0.07083359H225.17498162c-35.03855218-2.32567303-63.44244378-27.93167531-70.05349123-61.65982342l-122.81201372-736.96652061c-2.96316668-9.64504495-5.05272876-19.70328201-5.0527288-30.32817911 0-57.13833794 46.47802403-103.61636479 103.61636481-103.61636482h828.9427166c19.08939859 0 34.54272285 15.44151775 34.54272283 34.53091633s-15.46512798 34.54272285-34.5545266 34.54272288z m-97.7136445 0h-731.22907488c-19.0539846 0-34.53091913 15.48874105-34.53091633 34.54272561 0 19.06578834 15.47693453 34.54272285 34.53091633 34.54272288h731.22907488c-3.81315821-10.8019782-5.90272031-22.43034051-5.90272031-34.54272288a103.59275451 103.59275451 0 0 1 5.90272031-34.54272561z m-731.22907488 138.15908767c-5.83188955 0-11.49850171-0.81457477-17.07067004-1.72359338l1.95970424 8.90130376 108.17326425 649.06319849h573.74448056L917.98914841 125.10665700000004H130.86130613z m0 0M567.73349283 457.89026258c17.88524485 15.85470977 29.40735678 38.7218498 29.40735398 64.42229591 0 47.6231536-38.7218498 86.34500336-86.34500056 86.34500059s-86.34500336-38.7218498-86.34500339-86.34500059c0-25.70044609 11.53391568-48.56758894 29.40735677-64.42229591-47.76481791-21.75743008-81.22144102-69.68752257-81.22144105-125.53907233v-17.27136131c0-9.53879744 7.72076027-17.27136144 17.27136142-17.27136147h241.77544966c9.55060115 0 17.27136144 7.72076027 17.27136139 17.27136147v17.27136131c0 55.85154687-33.45662314 103.78163938-81.22143822 125.53907233z m0 0"  horiz-adv-x="1024" />

    
    <glyph glyph-name="mobanguanli" unicode="&#58970;" d="M769.84265733 465.95337855V721.32869853L510.79584625 867.40923782 251.74903241 721.32869853v-255.37531998l-224.50409107-126.58975519V46.36435977999997l259.04681384-146.04512249 224.50409107 126.55433838 224.50408822-126.55433838L994.34674838 46.36435977999997v293.01107013l-224.50409105 126.57794864z m-34.54272286-233.7477505l-154.81656563 87.28943592 154.81656563 87.25402197 154.81656571-87.25402197-154.81656571-87.28943592zM320.83447807 642.5982050499999l155.43044907-87.63179443v-174.5906812l-155.43044907 87.63179439V642.5982050499999z m224.49228446-262.21066914v174.59068125l155.43044906 87.63179446v-174.59068126l-155.43044906-87.63179445z m-104.21844164-60.88066539l-154.81656571-87.28943872-154.82837218 87.28943872 154.82837218 87.25402196 154.81656571-87.25402196z m-120.27384282-146.52914529l155.43044907 87.63179441v-174.54345789l-155.43044907-87.59638045v174.50804393zM665.58879885 701.42472236l-154.78114887-87.26582566-154.7929554 87.25402195 154.7929554 87.30124245 154.78114887-87.28943874z m-569.25840905-440.81520272l155.43044907-87.63179441v-174.51984763l-155.43044907 87.5963776v174.55526444z m448.99637273 0l155.43044906-87.63179441v-174.51984763l-155.43044906 87.5963776v174.55526444z m224.5158948-262.15164204v174.51984763l155.43044906 87.63179441v-174.54345789l-155.43044906-87.60818415z m0 0"  horiz-adv-x="1024" />

    
    <glyph glyph-name="qingbiaodan" unicode="&#58971;" d="M253.43878447 493.94486927h515.78762893v-73.69114504h-515.78762893zM253.43878447 346.57517582h515.78762893v-73.67855143h-515.78762893zM253.43878447 199.21807292999995h515.78762893v-73.69114201h-515.78762893zM916.58351324 825.52982433H769.2264134v36.84557101H658.70229092v-36.84557101H363.96290691v36.84557101h-110.52412244v-36.84557101H106.06909093c-20.36202516 0-36.84557104-16.48354587-36.84557102-36.84557105v-847.35999328c0-20.36202516 16.48354587-36.84557104 36.84557102-36.84557108H916.59610686c20.36202516 0 36.84557104 16.48354587 36.84557104 36.84557108V788.68425328c-0.01259363 20.36202516-16.48354587 36.84557104-36.85816466 36.84557105z m-663.14472877-73.67854844v-36.84557103h110.52412244v36.84557103h294.72679339v-36.84557103h110.52412246v36.84557103h110.52411946v-110.52412249H142.91466199v110.52412249h110.52412248z m-110.52412248-773.69403844v626.31175134h736.83587383v-626.31175134H142.91466199z m0 0"  horiz-adv-x="1024" />

    
    <glyph glyph-name="qunzuguanli" unicode="&#58972;" d="M863.40078513 297.47791549c-61.99037535 0-112.18711385-50.22034871-112.18711386-112.28155764 0-61.95495857 50.18493474-112.15169986 112.18711386-112.1516998 62.02579215 0 112.3169744 50.19673845 112.31697441 112.1516998 0.01180653 62.0494024-50.27937855 112.28155762-112.31697441 112.28155764z m0 0M511.53958743 642.90514674c62.06120896 0 112.25794741 50.19673845 112.2579474 112.18711662 0 62.13203966-50.18493474 112.3169744-112.2579474 112.31697446-62.06120896 0-112.25794741-50.18493474-112.25794738-112.31697446 0-62.00218187 50.19673845-112.18711385 112.25794738-112.18711662z m0 0M886.44500908 364.19046768c25.22822986-3.23469159 48.67383648-11.36864112 69.54585823-23.84699217 0.03541677 1.58192901 0.23610816 3.104831 0.23610815 4.68676002 0 180.72950969-108.57464972 336.32523611-263.80440469 405.80026363-0.57846662-24.62615293-5.90272031-47.95370553-15.34707674-69.17989232 118.80996786-58.64943627 202.32166518-178.02606419 209.36951505-317.46013916z m0 0M271.81828308 185.18455135c0 62.06120896-50.36201581 112.32878094-112.25794738 112.32878094-62.0966257 0-112.25794741-50.25576553-112.25794742-112.32878094 0-61.95495857 50.14951794-112.18711385 112.25794742-112.18711384 61.89593153 0.01180653 112.25794741 50.23215524 112.25794738 112.18711384z m0 0M136.56333511 364.26130122999996c7.11868059 139.43407495 90.60676764 258.77528898 209.39312242 317.43652889-9.40893684 21.21438023-14.73319053 44.55373658-15.34707392 69.17988954-155.22975493-69.45141441-263.83982141-225.08255765-263.83982144-405.83567763 0-1.54651219 0.20069137-3.04580398 0.23610813-4.59231617 20.84841151 12.44293712 44.32943494 20.61230058 69.55766481 23.81157537z m0 0M511.50417068-30.618927289999988c-87.59638046 0-168.0740775 30.35179217-232.02415434 80.82005558-18.31024057-16.25609253-39.83156255-28.64000253-63.60772116-36.4670104 78.64785339-70.28960224 182.07533052-113.43849087 295.64368197-113.43849083s216.98402212 43.13708489 295.67909884 113.46210113c-23.81157534 7.79159103-45.33289731 20.14008428-63.6431379 36.43159636-63.9736899-50.44465315-144.45138699-80.80824905-232.04776741-80.80825184z m0 0"  horiz-adv-x="1024" />

    
    <glyph glyph-name="renyuanqunzuguanli" unicode="&#58973;" d="M638.43628434 410.4441901c48.36689478 37.9781058 79.56867846 96.80462314 79.56867847 162.91509841 0 114.26487216-92.95605091 207.2209231-207.23272963 207.2209231s-207.2209231-92.95605091-207.22092308-207.2209231c0-66.11047526 31.23720051-124.93699255 79.56868129-162.91509841-127.35710662-50.89325914-217.71595958-175.32261867-217.71596241-320.62399718v-69.07364198c0-19.08939859 15.45332425-34.54272285 34.54272283-34.54272283h621.68637953c19.08939859 0 34.53091913 15.45332425 34.53091912 34.54272283v69.07364198c0 145.33679526-90.33524274 269.73073806-217.72776612 320.62399718zM510.78403973 711.5065696300001c76.19232253 0 138.14728111-61.95495857 138.1472811-138.14728112 0-76.19232253-61.95495857-138.15908765-138.1472811-138.15908768-76.19232253 0-138.15908765 61.95495857-138.15908764 138.15908768 0 76.18051601 61.95495857 138.14728111 138.15908764 138.14728112z m276.29456222-656.22909957h-552.61273754v34.54272286c0 152.3492283 123.95714045 276.3063688 276.34178557 276.3063688 152.3492283 0 276.270952-123.95714045 276.27095197-276.3063688v-34.54272286z m0 0M279.5626536 398.43805532c0.94443539 2.08956209 0.94443539 4.32079127 1.41665164 6.46938321 0.33055196 1.31040411 0.70832724 2.56178121 0.88540832 3.943016 0.27152492 2.72705573 0.10625035 5.3242537-0.27152491 7.99228522-0.12986063 1.41665164 0.20069137 2.76247251-0.12985778 4.17912697-0.20069137 0.81457477-0.77915798 1.38123769-1.01526896 2.19581246-0.53124612 1.54651219-1.2749873 2.92774991-2.01873129 4.37981826-1.41665164 2.96316668-2.97497042 5.66661216-5.09994927 8.06311598-0.30694171 0.34235847-0.67291044 0.57846662-1.00346521 0.90901857a33.27954204 33.27954204 0 0 1-10.86100523 7.55548287c-37.37602894 16.65747801-61.51815908 53.76198199-61.5181591 94.64423031 0 48.09536983 32.58301859 89.52066514 79.26173961 100.74764192 18.54634874 4.48606868 29.95040663 23.13866493 25.49975193 41.6968202-4.52148546 18.54634874-23.2449153 29.80874233-41.69682026 25.49975477-77.80966834-18.75884662-132.15011702-87.83248859-132.15011696-167.93241316 0-43.71555154 16.63386775-84.69224076 44.89609505-115.85860777-89.88663386-46.58427441-148.50065332-139.74101665-148.50065331-245.14000183v-53.41962357c0-19.08939859 15.45332425-34.54272285 34.5309163-34.54272281 19.08939859 0 34.54272285 15.45332425 34.54272563 34.54272281v53.41962357c0 95.51783209 64.22160455 177.48301437 156.36307794 200.69251285 11.46308493 1.60553926 21.8872907 8.59436207 26.86918586 19.96300317z m0 0M845.66901114 422.92254113c28.26222726 31.16636694 44.88429135 72.14305621 44.88429131 115.85860777 0 78.01035974-52.54602173 146.61178258-127.79390892 166.82270039-18.38107415 4.92286816-37.34061214-5.97355389-42.33431666-24.390042-4.95828494-18.45190491 5.97355389-37.37602894 24.39004482-42.33431669 45.13220596-12.10057861 76.66453881-53.28976573 76.66453881-100.11014543 0-40.87043891-24.10671335-77.91591589-61.44732547-94.60881352-4.17912697-1.81803714-7.86242459-4.34440151-11.0262827-7.64992671-0.27152492-0.30694171-0.61388339-0.50763306-0.88540833-0.81457471-2.16039564-2.39650378-3.70690787-5.15897915-5.1589763-8.1575598-0.70832724-1.45206842-1.47568147-2.7978893-1.98331452-4.32079125-0.23610816-0.77915798-0.81457477-1.38123769-1.00346241-2.19581246-0.34235847-1.41665164 0-2.76247251-0.14166713-4.17912697-0.36596874-2.66802865-0.53124612-5.26522663-0.27152492-7.99228522 0.16527737-1.38123769 0.54304986-2.63261472 0.8736018-3.943016 0.47221626-2.16039564 0.47221626-4.37981833 1.41665441-6.48118975 4.99370173-11.35683455 15.41790749-18.34565741 26.88099246-19.96300035 92.14147335-23.2094985 156.3630779-105.16287703 156.36307788-200.69251286v-53.43143007c0-19.08939859 15.45332425-34.53091913 34.54272286-34.53091907s34.53091913 15.45332425 34.53091631 34.53091907v53.43143007c0 105.41079175-58.61401943 198.56753397-148.5006533 245.15180556z m0 0"  horiz-adv-x="1024" />

    
    <glyph glyph-name="shequfenleiliebiaoguanli" unicode="&#58974;" d="M165.40402898 832.47693313H96.3303898c-38.16699344 0-69.08544565-30.90664573-69.08544846-69.08544568v-69.07363914c0-38.16699344 30.90664573-69.08544565 69.08544846-69.08544846h69.07363918c38.16699344 0 69.08544565 30.90664573 69.08544565 69.08544846v69.07363914c-0.01180653 38.16699344-30.91845221 69.08544565-69.08544565 69.08544568z m0-138.15908482H96.3303898v69.07363914h69.07363918v-69.07363914z m0 0M303.56311664 763.39148745h690.78363174v-69.07363914H303.56311664zM165.40402898 141.68149774000005H96.3303898c-38.16699344 0-69.08544565-30.90664573-69.08544846-69.07363919v-69.08544844c0-38.16699344 30.90664573-69.08544565 69.08544846-69.08544578h69.07363918c38.16699344 0 69.08544565 30.91845221 69.08544565 69.08544578v69.08544844c-0.01180653 38.16699344-30.91845221 69.07364198-69.08544565 69.07363919z m0-138.15908763H96.3303898v69.08544844h69.07363918v-69.08544844z m0 0M303.56311664 72.60785854999995h690.78363174v-69.08544844H303.56311664zM165.40402898 487.07331494H96.3303898c-38.16699344 0-69.08544565-30.91845221-69.08544846-69.07364195v-69.08544566c0-38.16699344 30.90664573-69.07364198 69.08544846-69.07364196h69.07363918c38.16699344 0 69.08544565 30.90664573 69.08544565 69.07364196v69.08544566c-0.01180653 38.16699344-30.91845221 69.07364198-69.08544565 69.07364195z m0-138.15908761H96.3303898v69.08544566h69.07363918v-69.08544566z m0 0M303.56311664 417.99967299h690.78363174v-69.08544566H303.56311664z"  horiz-adv-x="1024" />

    
    <glyph glyph-name="renyuanjichuxinxibiao" unicode="&#58975;" d="M655.10556603 393.66865806c69.20349974 46.50163714 114.85514534 125.46823585 114.85514534 214.91807028 0 142.69237681-116.10652239 258.79889924-258.78709268 258.79889918-142.69237681 0-258.78709271-116.10652239-258.78709264-258.79889918 0-89.44983439 45.65164276-168.42823969 114.8551453-214.91807028-176.82191043-60.47927993-304.58040258-228.63599468-304.58040257-426.54242478v-32.31149364c0-9.16102217 3.63607713-17.9560784 10.14087429-24.42545881 6.4693832-6.43396643 15.22901986-10.0818473 24.36643177-10.08185006h0.05902702l828.03369799 1.88887072c19.03037153 0.03541677 34.43647527 15.46512798 34.43647532 34.5073089v30.42262289c-0.01180653 197.90643006-127.77029869 366.06314486-304.59220914 426.54242478z m-333.71623161 214.91807028c0 104.65524401 85.14084681 189.79609085 189.79609081 189.79609081 104.64343745 0 189.78428431-85.14084681 189.7842843-189.79609081 0-104.64343745-85.14084681-189.78428431-189.7842843-189.78428427-104.65524401 0-189.79609085 85.14084681-189.79609081 189.78428427z m-189.72525724-639.20565563c1.21596027 209.46395602 170.9900209 379.50954153 379.50954151 379.50954154 207.95286055 0 377.34914589-169.10115017 379.47412758-377.76233514l-758.98366909-1.7472064z m0 0"  horiz-adv-x="1024" />

    
    <glyph glyph-name="shequfenleishezhi" unicode="&#58976;" d="M269.89399556 832.47693313H62.66126878v-207.23272682s0-207.23272677 207.23272678-207.23272678h207.23272962v207.23272678c0.01180653 207.23272677-207.23272677 207.23272677-207.23272962 207.23272682z m138.15908768-345.40361819H269.89399556c-126.18836967 0-137.65145458 106.14272916-138.15908761 138.15908491V763.39148745h138.15908761c23.06783423 0 138.15908765-6.68188108 138.15908768-138.1590876v-138.15908491z m0 0M753.45670421 832.47693313s-207.23272677 0-207.2327268-207.23272682v-207.23272678h207.2327268c207.23272677 0 207.23272677 207.23272677 207.23272966 207.23272678V832.47693313H753.45670421z m138.14728109-207.24453328c0-23.06783423-6.68188108-138.15908765-138.1590876-138.15908491H615.28581281v138.15908491c0 126.18836967 106.14272916 137.65145458 138.15908489 138.1590876h138.1590876v-138.1590876z m0 0M753.45670421 348.91422733H546.21217089v-207.23272959c0-207.23272677 207.23272677-207.23272677 207.23272681-207.23272688h207.23272962v207.23272688c0.01180653 0 0.01180653 207.23272677-207.22092311 207.23272959z m138.14728109-345.39181722H753.45670421c-23.06783423 0-138.15908765 6.68188108-138.15908764 138.15908763v138.15908763h138.15908764c126.17656313 0 137.65145458-106.14272916 138.15908763-138.15908763v-138.15908763z m0 0M62.66126878 141.68149774000005v-207.23272688h207.23272678s207.23272677 0 207.23272962 207.23272688v207.23272959H269.89399556c-207.23272677 0-207.23272677-207.23272677-207.23272678-207.23272959z m345.39181446 0c0-126.17656313-106.14272916-137.65145458-138.15908768-138.15908763H131.74671445v138.15908763c0 23.06783423 6.68188108 138.15908765 138.15908765 138.15908763h138.15908766v-138.15908763z m0 0"  horiz-adv-x="1024" />

    
    <glyph glyph-name="qiyeguanli" unicode="&#58977;" d="M970.36989558 485.79832484l-105.68231661 35.25105006a322.33578681 322.33578681 0 0 1-6.76451837 16.19706826l49.86618647 99.66153946a34.44827901 34.44827901 0 0 1-6.4693832 39.79614577l-97.50114381 97.50114384c-10.50684304 10.54225983-26.50321714 13.10404096-39.79614575 6.46938322l-99.69695625-49.83076978c-5.3832807 2.3847001-10.76656423 4.63953954-16.16165147 6.72910156l-35.25105008 105.68231668a34.4470995 34.4470995 0 0 1-32.68926608 23.56366073H442.3006709c-14.8512446 0-28.01431259-9.49157414-32.70107542-23.56366073L374.34854542 737.57298723c-5.3832807-2.08956209-10.81378475-4.34440151-16.16164871-6.72910156l-99.69695622 49.83076978a34.35147615 34.35147615 0 0 1-39.79614575-6.46938322l-97.50114667-97.50114384c-10.50684304-10.50684304-13.10404096-26.53863392-6.46938037-39.79614577l49.83076976-99.69695624a362.91109054 362.91109054 0 0 1-6.72910163-16.16165148l-105.68231662-35.25105006c-14.0720866-4.67495629-23.56366354-17.84982802-23.56366075-32.68926891v-137.91117301c0-14.83944084 9.49157414-28.01431259 23.56366075-32.68926607l105.69412315-35.25105006c2.08956209-5.3832807 4.34440151-10.8019782 6.76451839-16.19706826l-49.86618932-99.66153948a34.44473764 34.44473764 0 0 1 6.46938315-39.79614577l97.50114667-97.50114384c10.5304533-10.54225983 26.56224417-13.12765125 39.79614301-6.46938313l99.696959 49.83076966c5.3832807-2.3847001 10.76656423-4.63953954 16.16164869-6.72910154l35.25105002-105.68231665c4.67495629-14.0720866 17.84982802-23.57546723 32.68926893-23.57546721h137.91117298c14.8512446 0 28.01431259 9.49157414 32.72468571 23.57546721l35.19202304 105.65870637c5.3832807 2.12497883 10.81378475 4.37981833 16.19706543 6.7645184l99.69695625-49.83076974c13.23390158-6.63465778 29.25388596-4.07287659 39.79614575 6.4693804l97.50114381 97.50114663a34.48369583 34.48369583 0 0 1 6.4693832 39.79614295l-49.83076969 99.69695906c2.39650378 5.3832807 4.65134325 10.76656423 6.72910159 16.1616487l105.69412035 35.25105a34.4470995 34.4470995 0 0 1 23.56366351 32.68926891v137.91117298c0 14.83944084-9.49157414 28.00250886-23.57546725 32.6774624z m-45.38012064-145.74998451l-97.91433584-32.65385211c-10.2707349-3.39996619-18.34565741-11.48669518-21.78104035-21.7574301-4.37981833-13.09223444-9.92837639-26.43238361-16.52761742-39.66628517a34.46834788 34.46834788 0 0 1 0.03541679-30.77678794l46.19469261-92.42480481-62.35634408-62.35634402-92.42480484 46.19469536c-9.65685152 4.84023089-21.10812991 4.84023089-30.77678792 0.035414-13.23390158-6.59924098-26.59766095-12.15960564-39.66628233-16.52761742a34.50376467 34.50376467 0 0 1-21.81645711-21.78104039l-32.59482511-97.91433583h-88.21026388l-32.65385209 97.91433583c-3.39996619 10.2707349-11.48669518 18.34565741-21.7574301 21.78104039-13.09223444 4.37981833-26.43238361 9.92837639-39.66628515 16.52761742-9.69226826 4.81662065-21.1435467 4.81662065-30.77678514-0.035414l-92.42480483-46.19469536-62.35634685 62.35634402 46.23011217 92.42480481a34.48133396 34.48133396 0 0 1 0 30.83581497c-6.56382704 13.12765125-12.12418886 26.46780038-16.52762018 39.59545157a34.44237575 34.44237575 0 0 1-21.78104035 21.75743012l-97.91433591 32.65385213v88.21026384l97.91433591 32.65385213c10.2707349 3.39996619 18.34565741 11.48669518 21.78104035 21.75742729 4.41523508 13.163068 9.96379321 26.46780038 16.50400992 39.52462085a34.54272285 34.54272285 0 0 1 0.035414 30.88303551l-46.2301094 92.46022153 62.35634408 62.35634411 92.46022158-46.2301094a34.36918311 34.36918311 0 0 1 30.87123176 0.03541678c13.0686242 6.52841025 26.36155284 12.08877209 39.52461804 16.49220064 10.2707349 3.43538295 18.34565741 11.51030542 21.74562357 21.78104031l32.6538549 97.91433591h88.21026101l32.66565866-97.91433591c3.39996619-10.2707349 11.48669518-18.34565741 21.74562359-21.78104031 13.09223444-4.37981833 26.43238361-9.92837639 39.6662852-16.52761742a34.6961937 34.6961937 0 0 1 30.77678791 0.03541678l92.42480479 46.19469262 62.35634409-62.35634411-46.23011222-92.42480478a34.48133396 34.48133396 0 0 1 0-30.83581498c6.56382704-13.12765125 12.12418886-26.46780038 16.52762027-39.59545157 3.43538295-10.2707349 11.51030542-18.35746107 21.78104031-21.75743011l97.91433587-32.65385216 0.01180372-88.21026102z m0 0M511.25625602 556.54833964c-95.18727733 0-172.3948688-77.20759148-172.39486883-172.39486877 0-95.21089038 77.20759148-172.38306229 172.39486883-172.38306227 95.21089038 0 172.38306229 77.17217471 172.38306505 172.38306227 0.01180653 95.18727733-77.17217471 172.3948688-172.38306505 172.39486877z m0-275.82234595c-57.04389694 0-103.4392837 46.39538674-103.43928094 103.42747718 0 57.04389694 46.39538674 103.4392837 103.43928094 103.43928364 57.03209044 0 103.42747717-46.39538674 103.42747716-103.43928364 0-57.03209044-46.39538674-103.42747717-103.42747716-103.42747718z m0 0"  horiz-adv-x="1024" />

    
    <glyph glyph-name="qiyeziyuanguanli" unicode="&#58978;" d="M986.92112326 98.80413398999997l-117.58220108 675.87335731c-6.37493937 41.89751438-41.41349158 74.00831669-84.49154665 75.75552028h-548.00861757c-43.78638511-1.79442689-79.46243095-34.87327482-84.96376573-77.78605814l-117.21623236-673.89004275c-4.41523508-13.52903677-7.42562234-27.71917744-7.42562226-42.73569945 0-76.29857007 61.86051476-138.15908765 138.15908768-138.15908762h690.79543541c76.29857007 0 138.15908765 61.86051476 138.15908768 138.15908762 0 15.05193872-2.99858348 29.21846918-7.42562512 42.78292275zM223.52221905 781.35936958h574.54725155l103.5809453-595.43107423c-14.296391 4.99370173-29.4427736 8.26381014-45.4627552 8.2638101H165.40402898c-16.01998436 0-31.16636694-3.27010836-45.46275513-8.2638101l103.5809452 595.43107423z m632.66544165-794.41180025H165.40402898c-38.08435613 0-69.07364198 31.00108956-69.07363918 69.08544849 0 38.08435613 30.98928581 69.08544565 69.07363918 69.08544567h690.79543546c38.08435613 0 69.08544565-31.00108956 69.08544848-69.08544567-0.01180653-38.08435613-31.01289607-69.08544565-69.09725222-69.08544849z m0 0M407.17948146 366.88210942h207.2327268c38.15518972 0 69.08544565 30.93025877 69.08544567 69.08544569 0 38.15518972-30.93025877 69.08544565-69.08544567 69.08544569 0 57.2091715-46.38358021 103.61636479-103.61636201 103.6163648-57.24458828 0-103.61636479-46.40719331-103.61636479-103.6163648-38.14338318 0-69.08544565-30.93025877-69.08544569-69.08544569 0-38.15518972 30.9420625-69.08544565 69.08544569-69.08544569z m0 0M821.64493787 90.57574065999995c-19.08939859 0-34.54272285-15.45332425-34.54272285-34.54272284s15.45332425-34.54272285 34.54272285-34.54272288 34.54272285 15.45332425 34.54272283 34.54272288-15.44151775 34.54272285-34.54272283 34.54272284z m0 0"  horiz-adv-x="1024" />

    
    <glyph glyph-name="shequguanli" unicode="&#58979;" d="M959.80402551-16.487813640000013h-69.07364197v484.93213979c0 28.32125428-17.27136144 53.71476151-43.3495828 64.0681337l-232.96859248 93.25118608V783.43712797c0 39.5482311-32.28788342 69.08544565-68.90836458 69.08544567-7.60270339 0-15.54776813-1.38123769-23.31574603-4.14371019L176.79628036 725.07102317c-27.63654014-9.68046176-45.93497424-35.74687937-45.93497423-64.92992897v-676.62890784h-69.07364196c-18.99495476 0-34.54272285-15.54776813-34.54272283-34.54272285s15.53596159-34.54272285 34.54272283-34.54272282h898.01636134c18.99495476 0 34.54272285 15.54776813 34.54272287 34.54272282s-15.54776813 34.54272285-34.54272287 34.54272285z m-138.15908764 484.92033328v-484.93213703H614.41220826v567.8299509l207.23272961-82.89781387zM199.93494813 660.1292876800001l345.3918144 123.29603655v-799.92494162H199.93494813V660.1292876800001z m0 0M234.47767092 553.40809187h103.61636485v-69.08544569h-103.61636485zM407.17948146 553.40809187h103.61636479v-69.08544569h-103.61636479zM234.47767092 369.13694885999996h103.61636485v-69.08544566h-103.61636485zM407.17948146 369.13694885999996h103.61636479v-69.08544566h-103.61636479zM234.47767092 184.86580590000005h103.61636485v-69.08544847h-103.61636485zM407.17948146 184.86580590000005h103.61636479v-69.08544847h-103.61636479zM666.22629254 369.13694885999996h103.61636479v-69.08544566h-103.61636479zM666.22629254 184.86580590000005h103.61636479v-69.08544847h-103.61636479z"  horiz-adv-x="1024" />

    
    <glyph glyph-name="rizhiguanli" unicode="&#58980;" d="M338.09403577 590.20565415h345.39181445v-69.08544564H338.09403577zM199.93494813 590.20565415h69.08544565v-69.08544564h-69.08544565zM338.09403577 417.50384368h345.39181445v-69.08544571H338.09403577zM199.93494813 417.50384368h69.08544565v-69.08544571h-69.08544565zM338.09403577 244.81383970000002h345.39181445v-69.08544571H338.09403577zM199.93494813 244.81383970000002h69.08544565v-69.08544571h-69.08544565zM959.80402551 590.20565415h-103.61636481V762.89566093c0 19.07759483-15.45332425 34.54272285-34.54272283 34.54272285H61.78766417c-19.08939859 0-34.54272285-15.46512798-34.54272283-34.54272285v-759.86907743c0-19.08939859 15.45332425-34.54272285 34.54272283-34.54272282h898.01636134c19.08939859 0 34.54272285 15.45332425 34.54272287 34.54272282V555.65112477c0 19.08939859-15.45332425 34.55452938-34.54272287 34.55452938zM96.3303898 37.569306379999944V728.3647418h690.78362892v-690.78363172H96.3303898z m828.94271659 0h-69.08544569v483.55090213h69.08544569v-483.55090213z m0 0"  horiz-adv-x="1024" />

    
    <glyph glyph-name="yidongwangye" unicode="&#58981;" d="M953.75648874 807.04407664H69.55092441c-20.36202516 0-36.84557104-16.48354587-36.84557104-36.84557101v-663.15732249c0-20.36202516 16.48354587-36.84557104 36.84557104-36.84557095h353.7099299l-22.1249719-73.67855148h-55.25576589c-10.18730789 0-18.42278554-8.23547762-18.42278553-18.42278551s8.23547762-18.42278554 18.42278553-18.42278547h331.57236435c10.18730789 0 18.42278554 8.23547762 18.42278557 18.42278547s-8.23547762 18.42278554-18.42278557 18.42278551H622.18412434l-22.12497193 73.67855148h353.70992995c20.36202516 0 36.84557104 16.48354587 36.84557104 36.84557095V770.21109923c-0.01259363 20.36202516-16.49613651 36.83298041-36.85816466 36.83297741z m-442.1090775-699.99029986c-20.36202516 0-36.84557104 16.48354587-36.84557105 36.84557103s16.48354587 36.84557104 36.84557105 36.84557108 36.84557104-16.48354587 36.84557104-36.84557108c0-20.37461881-16.47095227-36.84557104-36.84557104-36.84557103z m-405.25091583 110.52411953v515.78763191h810.52701589v-515.78763191H106.39649541z m0 0"  horiz-adv-x="1024" />

    
    <glyph glyph-name="APPsheji" unicode="&#58982;" d="M682.87196683 858.57876761H340.54956654c-49.80715946 0-91.22065105-41.17738063-91.22065105-90.9373196v-767.93219338c0-50.01965735 41.41349158-90.96092983 91.22065105-90.96093262h342.32240029c49.81896595 0 91.23245475 40.94127248 91.23245474 90.96093262V767.64144801c0 49.75993895-41.41349158 90.93731956-91.23245474 90.9373196z m-219.77010775-49.44119077h98.22127759c4.53328917 0 8.18117006-3.6596874 8.18117003-8.1811728 0-4.50967893-3.64788083-8.18117006-8.18117003-8.18117005h-98.22127759c-4.50967893 0-8.18117006 3.6714911-8.18116996 8.18117005 0 4.52148546 3.6714911 8.18117006 8.18116996 8.1811728z m48.16620346-864.94931716c-17.18872417 0-32.54760461 14.17833695-32.54760458 32.06358176s15.35888043 32.13441251 32.54760458 32.13441253c18.10954923 0 32.063579-14.2491677 32.06358177-32.13441253 0-17.87343828-13.96583905-32.063579-32.06358177-32.06358176z m194.99048391 96.56851497H316.14771803V760.4873506h390.11082842v-719.73057595z m0 0"  horiz-adv-x="1024" />

    
    <glyph glyph-name="zhaoti" unicode="&#58983;" d="M49.36834013 557.95318757l449.00817932-172.69000396c4.01384957-1.52290202 8.19297653-2.29025622 12.4193268-2.29025624 4.21454375 0 8.3936679 0.77915798 12.40751745 2.29025624l449.00817931 172.69000396c13.3283426 5.12356233 22.12339884 17.94427185 22.1233988 32.25246658 0 14.296391-8.80685997 27.11710051-22.1233988 32.2406629L523.2033637 795.14812754a34.99723213 34.99723213 0 0 1-24.82684425 0l-449.00817932-172.70181049c-13.3283426-5.12356233-22.12339884-17.94427185-22.12339879-32.2406629 0-14.30819471 8.80685997-27.11710051 22.12339879-32.25246658z m461.42750612 167.94421691l352.78201998-135.69175033-352.78201998-135.69175027-352.78202278 135.69175027 352.78202278 135.69175033z m0 0M972.22334957 207.98086063000005l-98.98863187 38.08435617-96.23796303-37.03367329 86.58111156-33.29134577-352.78201998-135.70355407-352.78202278 135.70355407 86.58111152 33.29134577-96.22615928 37.03367329-99.00043558-38.08435617c-13.3283426-5.12356233-22.12339884-17.94427185-22.12339879-32.24066289 0-14.30819471 8.80685997-27.11710051 22.12339879-32.25246664l449.00817932-172.70181046c4.01384957-1.51109548 8.19297653-2.29025622 12.4193268-2.29025621 4.21454375 0 8.3936679 0.77915798 12.40751745 2.29025621l449.00817931 172.70181046c13.3283426 5.12356233 22.12339884 17.94427185 22.1233988 32.25246664 0.01180653 14.296391-8.79505345 27.10529402-22.11159224 32.24066289z m0 0M972.22334957 415.21358746l-98.98863187 38.08435611-96.23796303-37.03367043 86.58111156-33.29134577-352.78201998-135.70355682-352.78202278 135.70355682 86.58111152 33.29134577-96.22615928 37.03367043-99.00043558-38.08435611c-13.3283426-5.12356233-22.12339884-17.94427185-22.12339879-32.24066009 0-14.30819471 8.80685997-27.11710051 22.12339879-32.25246941l449.00817932-172.7018105c4.01384957-1.51109548 8.19297653-2.29025622 12.4193268-2.29025347 4.21454375 0 8.3936679 0.77915798 12.40751745 2.29025347l449.00817931 172.7018105c13.3283426 5.12356233 22.12339884 17.94427185 22.1233988 32.25246941a34.52147446 34.52147446 0 0 1-22.11159224 32.24066009z m0 0"  horiz-adv-x="1024" />

    
    <glyph glyph-name="wuyejiaofei" unicode="&#58984;" d="M511.57500428 865.66203138C245.45673027 865.66203138 29.74769546 649.9293863400001 29.74769546 383.82291893s215.70903481-481.85091906 481.82730882-481.85091905c266.07105066 0 481.81550227 215.74445163 481.81550219 481.85091905S777.6578614 865.66203138 511.57500428 865.66203138z m0-894.8525005c-228.1165551 0-413.00158146 184.92044315-413.00158153 413.01338805S283.47025566 796.8363041 511.57500428 796.8363041c228.09294486 0 412.97797122-184.90863661 412.97797115-413.00158147S739.66794909-29.19046911999999 511.57500428-29.19046911999999z m125.65712352 415.37447503c-20.6359136 15.99637409-45.09678921 26.01919434-96.94628745 39.05240176v181.59131053c23.19769483-4.53328917 37.04547699-10.89642205 51.21200456-25.22822983 17.41302573-16.26789903 25.11017575-33.29134579 30.28095858-65.82714664l52.15644275 10.17629107c-8.37005765 41.37807478-17.37761179 61.0577465-39.96142033 84.09016394-24.09490684 24.79142756-47.98912231 35.84132042-93.68798556 42.18084583v35.19202025h-57.39805917v-35.01493915c-35.62882251-5.20619962-54.95433206-12.17140938-75.72010627-26.71571503-34.75522069-23.72893809-54.11614702-62.40356741-54.1161442-107.85451879 0-42.0745955 18.05051942-79.41520769 49.00438837-99.79140007 22.14700908-14.67416347 40.79960813-22.24145287 80.8318621-32.0753855v-200.14946298c-27.93167531 4.00204588-46.54885762 13.0686242-62.14384618 30.08026441-17.41302573 18.99495476-24.49629234 38.68643305-27.73098396 78.04577653l-53.50226364-8.87769076c7.73256396-50.84603868 18.72342982-77.30203529 41.90931808-101.70388382 24.33101497-24.40184857 50.68076124-36.03020802 101.4677757-42.52320152v-60.6681647h57.39805917v59.41678765c41.76765379 4.63953954 63.24175241 10.95544907 86.62833199 26.75113181 37.37602894 25.074759 56.73695526 64.46951923 56.73695243 117.36970319 0 45.52178499-14.1901407 78.08119326-46.41899697 102.48304182z m-154.35615313 50.64534728c-15.0283285 3.78954797-24.2719879 6.95340599-34.44827903 11.80544062-30.95386907 15.58318205-45.74608656 38.63921255-45.74608938 71.22223109 0 26.43238361 11.59294274 51.51894908 30.24554458 66.48825051 13.57625723 10.83739497 27.32959846 16.31511955 49.94882383 20.23452812v-169.75045034z m115.70513685-229.73390096c-16.13803843-12.773489-31.43789183-18.35746107-58.29527117-22.32409011v188.7808219c36.80936882-9.76310183 49.63007839-14.55610938 61.45912923-23.29213583 20.03383391-15.63040537 30.35179217-37.37602894 30.35179211-67.22018801-0.01180653-32.52399153-12.27765967-59.67650889-33.51565017-75.94440795z m0 0"  horiz-adv-x="1024" />

    
    <glyph glyph-name="wuyebaoxiu" unicode="&#58985;" d="M948.84857362 165.62293365999994l-217.34999081 217.33818716c13.98944933 39.07601199 21.07271315 79.92284068 21.07271308 121.78493828 0 199.9723819-162.67899027 362.66317589-362.66317589 362.66317872-49.78354921 0-98.22127756-10.03462674-143.92014362-29.82054604l-21.61576297-9.36171632c-0.03541677-0.03541677 0.12986063-0.0472205 0.05902702-0.08263735a18.46371143 18.46371143 0 0 1-5.66661213-3.88399176c-7.15409737-7.16590389-7.15409737-18.81787363 0.03541396-26.0073878 0.10625035-0.10625035-0.10625035-0.15347087-0.03541396-0.24791465l203.05359985-203.05360269-122.13910048-122.11549024-198.96891951 198.99252977c-0.2951352-0.03541677-0.60207689-0.0472205-1.01526896 0.35416218-8.4290847 8.4290847-22.09978857 8.4290847-30.52887329 0-2.30205999-2.31386647-3.99023933-4.99370173-5.02911848-7.86242459-0.10625035-0.27152492-0.23610816-0.12986063-0.37777244-0.15347083l-6.70549135-15.51234848c-19.762309-45.65164276-29.82054605-94.08937109-29.82054603-143.90833992 0-199.94877167 162.67899027-362.66317589 362.66317589-362.66317588 41.82668082 0 82.67350948 7.08326382 121.79674479 21.07271311l217.34999089-217.3263806c29.34832972-29.33652323 68.36531475-45.53358867 109.89686036-45.53358867h0.03541676c41.48432233 0 80.54853063 16.18526172 109.89685758 45.53358867 60.55011069 60.58552743 60.55011069 159.1845803-0.02361026 219.79371793z m-48.81550078-170.94279753c-16.32692607-16.32692607-38.01352257-25.29906341-61.04594279-25.29906342h-0.03541398c-23.06783423 0-44.75443071 8.97213453-61.0577465 25.29906342l-249.96842902 249.94481596-21.55673592-9.31449304c-36.99825648-16.01998436-76.19232253-24.15393388-116.47249113-24.15393387-161.8644155 0-293.5777302 131.67790073-293.57773021 293.58953392 0 22.48936758 2.52636439 44.63637664 7.55548286 66.22852936l182.60657671-182.64199065c7.66173043-6.10341445 18.18037999-6.18605178 25.97197104-0.38957896l191.9919032 191.99190039c0.0708336 0.0708336-0.05902702 0.15347087 0 0.22430444 7.82700781 7.81520125 8.06311595 20.03383391 1.34582088 28.52194847L323.66778413 790.79191949c21.6275695 5.00550826 43.7509683 7.54367636 66.24033587 7.54367635 161.8644155 0 293.5777302-131.70151097 293.57773022-293.57773019 0-40.32738907-8.12214299-79.49784491-24.14213017-116.43707438l-9.314493-21.55673589 249.968429-249.96842904c33.66912105-33.66912105 33.66912105-88.44637197 0.03541679-122.11549021z m0 0"  horiz-adv-x="1024" />

    
    <glyph glyph-name="yezhubaoxiudan" unicode="&#58986;" d="M511.00519595 678.16013386l-38.70925788 26.05382267-104.19010961-104.20270323-52.09505471 52.09505483-52.09505185-52.09505483 104.19010656-104.19010654 142.89936749 182.3389871z m0 0M547.85076697 604.46898879h221.04824187v-36.84557107H547.85076697zM511.00519595 457.11188892l-38.70925788 26.05382265-104.20270025-104.20270014-52.09505473 52.09505477-52.09505483-52.09505477 104.19010956-104.19010958 142.91195813 182.33898707z m0 0M547.85076697 383.42074682h221.04824187v-36.845571H547.85076697zM879.42313133 862.37539534H142.58725753c-20.36202516 0-36.84557104-16.49613651-36.84557108-36.84557101v-884.20556433c0-20.36202516 16.48354587-36.84557104 36.84557108-36.84557108h478.94205786L916.26870239 162.37250189999997V825.52982433c0 20.3368409-16.48354587 36.84557104-36.84557106 36.84557101z m-221.04824496-827.72832993V162.37250189999997h146.00970706l-146.00970706-127.72543649z m184.21526462 201.40398793H621.52931539c-20.36202516 0-36.84557104-16.48354587-36.84557103-36.84557104v-221.04824485H179.43282852V788.68425328h663.15732247v-552.63319994z m0 0"  horiz-adv-x="1024" />

    
    <glyph glyph-name="yingyongxinjianweihu" unicode="&#58987;" d="M950.857 859.429H73.143c-20.215 0-36.572-16.375-36.572-36.572v-877.714c0-20.215 16.357-36.572 36.572-36.572h877.714c20.215 0 36.572 16.357 36.572 36.572V822.857c0 20.215-16.357 36.572-36.572 36.572z m-62.427-73.143l-157.001-157-157 157h314zM705.573 603.429L512 409.858 336.715 585.143l193.57 193.57L705.574 603.43zM486.144 384L329.143 227V541l157.001-157z m-376.43 402.286h376.43l-376.43-376.428V786.286z m0-428.144L292.571 541v-350.572L109.714 7.57V358.142z m25.858-376.428L512 358.142l376.43-376.428H135.572z m778.714 25.858L537.858 384l376.428 376.428v-752.856z"  horiz-adv-x="1024" />

    
    <glyph glyph-name="shequjichuguanli" unicode="&#58988;" d="M256 493.714h512v-73.143H256v73.143zM256 347.429h512v-73.143H256v73.143zM256 201.143h512V128H256v73.143zM914.286 822.857H768V859.43H658.286v-36.572H365.714V859.43H256v-36.572H109.714c-20.215 0-36.571-16.356-36.571-36.571v-841.143c0-20.215 16.356-36.572 36.571-36.572h804.572c20.215 0 36.571 16.357 36.571 36.572V786.286c0 20.215-16.356 36.571-36.571 36.571zM256 749.714v-36.571h109.714v36.571h292.572v-36.571H768v36.571h109.714V640H146.286V749.714H256z m-109.714-768V603.43h731.428v-621.715H146.286z"  horiz-adv-x="1024" />

    
    <glyph glyph-name="dingzhihuaguanli" unicode="&#58989;" d="M219.429 859.429c-80.787 0-146.286-65.5-146.286-146.286s65.5-146.286 146.286-146.286 146.285 65.5 146.285 146.286-65.5 146.286-146.285 146.286z m0-219.429c-40.322 0-73.143 32.821-73.143 73.143s32.82 73.143 73.143 73.143 73.142-32.821 73.142-73.143S259.751 640 219.43 640zM219.429 530.286c-80.787 0-146.286-65.5-146.286-146.286s65.5-146.286 146.286-146.286S365.714 303.214 365.714 384s-65.5 146.286-146.285 146.286z m0-219.429c-40.322 0-73.143 32.821-73.143 73.143s32.82 73.143 73.143 73.143S292.57 424.322 292.57 384s-32.82-73.143-73.142-73.143zM219.429 201.143c-80.787 0-146.286-65.5-146.286-146.286s65.5-146.286 146.286-146.286 146.285 65.5 146.285 146.286-65.5 146.286-146.285 146.286z m0-219.429c-40.322 0-73.143 32.821-73.143 73.143S179.106 128 219.429 128s73.142-32.821 73.142-73.143-32.82-73.143-73.142-73.143zM475.429 749.714H1024v-73.143H475.429v73.143zM475.429 420.571H1024v-73.142H475.429V420.57zM475.429 91.429H1024v-73.143H475.429v73.143z"  horiz-adv-x="1024" />

    
    <glyph glyph-name="jifen" unicode="&#58990;" d="M460.357 22.107c-24-2.393-49.393-3.821-76.357-3.821-189.75 0-310.857 64.963-310.857 109.714 0 0.75-0.393 1.393-0.428 2.143 0.037 0.75 0.428 1.393 0.428 2.143v68.107C147.536 152.893 268 128 384 128c24.357 0 48.858 1.357 73.143 3.5v73.106A776.848 776.848 0 0 0 384 201.141c-189.75 0-310.857 64.964-310.857 109.714v72.393C147.536 335.75 268 310.858 384 310.858c24.357 0 48.858 1.356 73.143 3.499v42.822c0 10.642 1.892 20.928 5.358 30.857C437.857 385.536 411.75 384 384 384c-189.75 0-310.857 64.964-310.857 109.714v72.393C147.536 518.607 268 493.714 384 493.714s236.464 24.893 310.857 72.393v-55.535c17.715 1.679 35.964 2.642 54.857 2.642 6.214 0 12.215-0.285 18.286-0.464V676.57C768 795.357 570.143 859.43 384 859.43S0 795.357 0 676.57V128c0-118.786 197.857-182.857 384-182.857 41.642 0 83.785 3.392 124.25 9.713-24.927 19.357-41.463 42.143-47.893 67.251zM384 786.286c189.75 0 310.857-64.964 310.857-109.715S573.751 566.857 384 566.857 73.143 631.821 73.143 676.571 194.25 786.286 384 786.286zM749.714 493.714c-156.357 0-274.285-62.893-274.285-146.285v-292.572c0-83.392 117.928-146.286 274.285-146.286S1024-28.535 1024 54.857V347.43c0 83.392-117.928 146.285-274.286 146.285z m201.143-438.857c0-29.107-80.214-73.143-201.143-73.143s-201.143 44.036-201.143 73.143v45.036c49.357-27.964 119.966-45.036 201.143-45.036S901.5 71.93 950.857 99.893v-45.036z m0 146.286c0-29.107-80.214-73.143-201.143-73.143s-201.143 44.036-201.143 73.143v45.036c49.357-27.965 119.966-45.036 201.143-45.036s151.786 17.071 201.143 45.036v-45.036z m-201.143 73.143c-120.929 0-201.143 44.035-201.143 73.143s80.214 73.142 201.143 73.142 201.143-44.035 201.143-73.142-80.214-73.143-201.143-73.143z"  horiz-adv-x="1024" />

    
    <glyph glyph-name="tuwentuisong" unicode="&#58991;" d="M950.857 822.857H73.143s-36.572 0-36.572-36.571v-804.572c0-36.571 36.572-36.571 36.572-36.571h877.714s36.572 0 36.572 36.571V786.286s0 36.571-36.572 36.571z m-36.571-804.571H109.714V749.714h804.572v-731.428zM292.571 493.714c40.394 0 73.143 32.75 73.143 73.143 0 40.428-32.75 73.143-73.143 73.143-40.356 0-73.142-32.715-73.142-73.143 0-40.393 32.786-73.143 73.142-73.143zM658.286 515.035L441.536 186.75 329.143 354.357 146.286 73.143h731.428z"  horiz-adv-x="1024" />

    
    <glyph glyph-name="qunzu" unicode="&#58992;" d="M239.116 894.175c-131.052 0-237.29-106.239-237.29-237.29s106.238-237.291 237.29-237.291h237.29v237.29c0 131.052-106.238 237.29-237.29 237.29z m164.278-401.569H239.116c-90.589 0-164.278 73.69-164.278 164.278s73.69 164.278 164.278 164.278 164.278-73.69 164.278-164.278v-164.278zM1024 656.884c0 131.052-106.239 237.29-237.29 237.29s-237.291-106.238-237.291-237.29v-237.29h237.29c131.052 0 237.291 106.238 237.291 237.29z m-401.569 0c0 90.589 73.69 164.278 164.278 164.278s164.279-73.69 164.279-164.278-73.69-164.278-164.279-164.278H622.431V656.884zM1.825 109.29c0-131.051 106.239-237.29 237.29-237.29s237.291 106.239 237.291 237.29V346.582h-237.29c-131.052 0-237.29-106.239-237.29-237.29z m401.569 0c0-90.588-73.69-164.278-164.278-164.278S74.838 18.702 74.838 109.291s73.69 164.278 164.278 164.278h164.278V109.29zM786.71 346.581H549.418v-237.29c0-131.052 106.239-237.291 237.29-237.291S1024-21.761 1024 109.29 917.761 346.582 786.71 346.582z m0-401.569c-90.589 0-164.279 73.69-164.279 164.279V273.569H786.71c90.589 0 164.279-73.69 164.279-164.278s-73.69-164.279-164.279-164.279z"  horiz-adv-x="1024" />

    
    <glyph glyph-name="qiyexinzeng" unicode="&#58993;" d="M512 896C229.215 896 0 666.768 0 384c0-282.785 229.215-512 512-512s512 229.215 512 512C1024 666.768 794.787 896 512 896z m0-950.857C270-54.857 73.143 142 73.143 384 73.143 625.982 270 822.857 512 822.857S950.857 625.982 950.857 384C950.857 142 754-54.857 512-54.857zM731.429 462.036h-157L525.93 611.162c-3.928 12.072-23.929 12.072-27.856 0l-48.5-149.126H292.571c-6.32 0-11.964-4.072-13.928-10.106a14.708 14.708 0 0 1 5.321-16.357l127-92.215-48.5-149.142c-1.928-6 0.215-12.608 5.322-16.356 5.107-3.643 12.036-3.714 17.214 0l127 92.21 127-92.214a14.712 14.712 0 0 1 8.607-2.785c3.035 0 6.036 0.929 8.607 2.785 5.107 3.75 7.25 10.357 5.321 16.357l-48.5 149.142 127 92.214a14.709 14.709 0 0 1 5.322 16.357 14.656 14.656 0 0 1-13.928 10.11z"  horiz-adv-x="1024" />

    
    <glyph glyph-name="menjin" unicode="&#58994;" d="M950.857 566.857H768V640C768 781.144 653.144 896 512 896S256 781.144 256 640v-73.143H73.143c-20.215 0-36.572-16.356-36.572-36.571V-91.43c0-20.214 16.357-36.571 36.572-36.571h877.714c20.215 0 36.572 16.357 36.572 36.571V530.286c0 20.215-16.357 36.571-36.572 36.571zM329.143 640c0 100.822 82.035 182.857 182.857 182.857S694.857 740.822 694.857 640v-73.143H329.143V640z m585.143-694.857H109.714V493.714h804.572v-548.571zM512 100.571c45.358 0 82.286 36.928 82.286 82.286V256c0 45.358-36.928 82.286-82.286 82.286S429.714 301.358 429.714 256v-73.143c0-45.358 36.93-82.286 82.286-82.286zM484.571 256c0 15.108 12.321 27.429 27.429 27.429s27.429-12.321 27.429-27.429v-73.143c0-15.108-12.321-27.428-27.429-27.428s-27.429 12.32-27.429 27.428V256z"  horiz-adv-x="1024" />

    
    <glyph glyph-name="dengluyonghuming" unicode="&#58995;" d="M655.10556603 393.66865806c69.20349974 46.50163714 114.85514534 125.46823585 114.85514534 214.91807028 0 142.69237681-116.10652239 258.79889924-258.78709268 258.79889918-142.69237681 0-258.78709271-116.10652239-258.78709264-258.79889918 0-89.44983439 45.65164276-168.42823969 114.8551453-214.91807028-176.82191043-60.47927993-304.58040258-228.63599468-304.58040257-426.54242478v-32.31149364c0-9.16102217 3.63607713-17.9560784 10.14087429-24.42545881 6.4693832-6.43396643 15.22901986-10.0818473 24.36643177-10.08185006h0.05902702l828.03369799 1.88887072c19.03037153 0.03541677 34.43647527 15.46512798 34.43647532 34.5073089v30.42262289c-0.01180653 197.90643006-127.77029869 366.06314486-304.59220914 426.54242478z m-333.71623161 214.91807028c0 104.65524401 85.14084681 189.79609085 189.79609081 189.79609081 104.64343745 0 189.78428431-85.14084681 189.7842843-189.79609081 0-104.64343745-85.14084681-189.78428431-189.7842843-189.78428427-104.65524401 0-189.79609085 85.14084681-189.79609081 189.78428427z m-189.72525724-639.20565563c1.21596027 209.46395602 170.9900209 379.50954153 379.50954151 379.50954154 207.95286055 0 377.34914589-169.10115017 379.47412758-377.76233514l-758.98366909-1.7472064z m0 0"  horiz-adv-x="1024" />

    
    <glyph glyph-name="zhanghaoshezhi" unicode="&#58996;" d="M970.36989558 485.79832484l-105.68231661 35.25105006a322.33578681 322.33578681 0 0 1-6.76451837 16.19706826l49.86618647 99.66153946a34.44827901 34.44827901 0 0 1-6.4693832 39.79614577l-97.50114381 97.50114384c-10.50684304 10.54225983-26.50321714 13.10404096-39.79614575 6.46938322l-99.69695625-49.83076978c-5.3832807 2.3847001-10.76656423 4.63953954-16.16165147 6.72910156l-35.25105008 105.68231668a34.4470995 34.4470995 0 0 1-32.68926608 23.56366073H442.3006709c-14.8512446 0-28.01431259-9.49157414-32.70107542-23.56366073L374.34854542 737.57298723c-5.3832807-2.08956209-10.81378475-4.34440151-16.16164871-6.72910156l-99.69695622 49.83076978a34.35147615 34.35147615 0 0 1-39.79614575-6.46938322l-97.50114667-97.50114384c-10.50684304-10.50684304-13.10404096-26.53863392-6.46938037-39.79614577l49.83076976-99.69695624a362.91109054 362.91109054 0 0 1-6.72910163-16.16165148l-105.68231662-35.25105006c-14.0720866-4.67495629-23.56366354-17.84982802-23.56366075-32.68926891v-137.91117301c0-14.83944084 9.49157414-28.01431259 23.56366075-32.68926607l105.69412315-35.25105006c2.08956209-5.3832807 4.34440151-10.8019782 6.76451839-16.19706826l-49.86618932-99.66153948a34.44473764 34.44473764 0 0 1 6.46938315-39.79614577l97.50114667-97.50114384c10.5304533-10.54225983 26.56224417-13.12765125 39.79614301-6.46938313l99.696959 49.83076966c5.3832807-2.3847001 10.76656423-4.63953954 16.16164869-6.72910154l35.25105002-105.68231665c4.67495629-14.0720866 17.84982802-23.57546723 32.68926893-23.57546721h137.91117298c14.8512446 0 28.01431259 9.49157414 32.72468571 23.57546721l35.19202304 105.65870637c5.3832807 2.12497883 10.81378475 4.37981833 16.19706543 6.7645184l99.69695625-49.83076974c13.23390158-6.63465778 29.25388596-4.07287659 39.79614575 6.4693804l97.50114381 97.50114663a34.48369583 34.48369583 0 0 1 6.4693832 39.79614295l-49.83076969 99.69695906c2.39650378 5.3832807 4.65134325 10.76656423 6.72910159 16.1616487l105.69412035 35.25105a34.4470995 34.4470995 0 0 1 23.56366351 32.68926891v137.91117298c0 14.83944084-9.49157414 28.00250886-23.57546725 32.6774624z m-45.38012064-145.74998451l-97.91433584-32.65385211c-10.2707349-3.39996619-18.34565741-11.48669518-21.78104035-21.7574301-4.37981833-13.09223444-9.92837639-26.43238361-16.52761742-39.66628517a34.46834788 34.46834788 0 0 1 0.03541679-30.77678794l46.19469261-92.42480481-62.35634408-62.35634402-92.42480484 46.19469536c-9.65685152 4.84023089-21.10812991 4.84023089-30.77678792 0.035414-13.23390158-6.59924098-26.59766095-12.15960564-39.66628233-16.52761742a34.50376467 34.50376467 0 0 1-21.81645711-21.78104039l-32.59482511-97.91433583h-88.21026388l-32.65385209 97.91433583c-3.39996619 10.2707349-11.48669518 18.34565741-21.7574301 21.78104039-13.09223444 4.37981833-26.43238361 9.92837639-39.66628515 16.52761742-9.69226826 4.81662065-21.1435467 4.81662065-30.77678514-0.035414l-92.42480483-46.19469536-62.35634685 62.35634402 46.23011217 92.42480481a34.48133396 34.48133396 0 0 1 0 30.83581497c-6.56382704 13.12765125-12.12418886 26.46780038-16.52762018 39.59545157a34.44237575 34.44237575 0 0 1-21.78104035 21.75743012l-97.91433591 32.65385213v88.21026384l97.91433591 32.65385213c10.2707349 3.39996619 18.34565741 11.48669518 21.78104035 21.75742729 4.41523508 13.163068 9.96379321 26.46780038 16.50400992 39.52462085a34.54272285 34.54272285 0 0 1 0.035414 30.88303551l-46.2301094 92.46022153 62.35634408 62.35634411 92.46022158-46.2301094a34.36918311 34.36918311 0 0 1 30.87123176 0.03541678c13.0686242 6.52841025 26.36155284 12.08877209 39.52461804 16.49220064 10.2707349 3.43538295 18.34565741 11.51030542 21.74562357 21.78104031l32.6538549 97.91433591h88.21026101l32.66565866-97.91433591c3.39996619-10.2707349 11.48669518-18.34565741 21.74562359-21.78104031 13.09223444-4.37981833 26.43238361-9.92837639 39.6662852-16.52761742a34.6961937 34.6961937 0 0 1 30.77678791 0.03541678l92.42480479 46.19469262 62.35634409-62.35634411-46.23011222-92.42480478a34.48133396 34.48133396 0 0 1 0-30.83581498c6.56382704-13.12765125 12.12418886-26.46780038 16.52762027-39.59545157 3.43538295-10.2707349 11.51030542-18.35746107 21.78104031-21.75743011l97.91433587-32.65385216 0.01180372-88.21026102z m0 0M511.25625602 556.54833964c-95.18727733 0-172.3948688-77.20759148-172.39486883-172.39486877 0-95.21089038 77.20759148-172.38306229 172.39486883-172.38306227 95.21089038 0 172.38306229 77.17217471 172.38306505 172.38306227 0.01180653 95.18727733-77.17217471 172.3948688-172.38306505 172.39486877z m0-275.82234595c-57.04389694 0-103.4392837 46.39538674-103.43928094 103.42747718 0 57.04389694 46.39538674 103.4392837 103.43928094 103.43928364 57.03209044 0 103.42747717-46.39538674 103.42747716-103.43928364 0-57.03209044-46.39538674-103.42747717-103.42747716-103.42747718z m0 0"  horiz-adv-x="1024" />

    
    <glyph glyph-name="xiugaimima" unicode="&#58997;" d="M956.429 647.428l-181 180.999-592.572-592.534v-181.036h181l592.572 592.57z m-103.428 0L378.644 173.07l-77.606 77.571L775.429 725l77.572-77.571zM256 128v77.606l19.178 19.178 77.572-77.606L333.572 128H256zM36.571-54.857H1024V-128H36.571v73.143z"  horiz-adv-x="1024" />

    
    <glyph glyph-name="sousuo" unicode="&#58998;" d="M1024-76.286L743.643 204.036c61.43 73.106 98.5 167.321 98.5 270.284 0.037 232.286-188.25 420.572-420.571 420.572-232.25 0-420.535-188.286-420.535-420.572S189.287 53.786 421.5 53.786h0.143c102.965 0 197.178 37.107 270.285 98.536L972.286-128 1024-76.286zM421.5 126.928c-191.5 0-347.32 155.857-347.32 347.392C74.18 665.893 230 821.75 421.572 821.75c92.822 0 180.072-36.144 245.714-101.75C732.893 654.39 769 567.14 769 474.32s-36.107-180.035-101.714-245.643S514.428 126.928 421.5 126.928z"  horiz-adv-x="1024" />

    
    <glyph glyph-name="tongzhi" unicode="&#58999;" d="M747.643 892.215A36.604 36.604 0 0 1 731.429 896c-7.893 0-15.715-2.536-22.214-7.537l-493.75-285.034H36.57C16.357 603.429 0 587.072 0 566.857v-365.714c0-20.215 16.357-36.572 36.571-36.572h178.893l493.751-285.035c6.499-5 14.321-7.536 22.214-7.536a36.61 36.61 0 0 1 16.214 3.785A36.576 36.576 0 0 1 768-91.429V859.43a36.576 36.576 0 0 1-20.357 32.786zM73.145 530.285H197.18v-292.57H73.145v292.57z m621.712-557.999L252.036 227.928l-16.964 9.786h-1.322V530.286h1.322l16.964 9.786 442.821 255.642v-823.428zM877.714 676.571c-20.215 0-36.571-16.356-36.571-36.571v-512c0-20.215 16.356-36.571 36.571-36.571s36.572 16.356 36.572 36.571V640c0 20.215-16.357 36.571-36.572 36.571zM987.429 530.286c-20.215 0-36.572-16.357-36.572-36.572v-219.428c0-20.215 16.357-36.572 36.572-36.572S1024 254.071 1024 274.286V493.714c0 20.215-16.357 36.572-36.571 36.572z"  horiz-adv-x="1024" />

    
    <glyph glyph-name="tuichudenglu" unicode="&#59000;" d="M699.245714 763.611429c0-13.531429 7.314286-25.234286 19.017143-32.182858 136.777143-79.725714 222.72-237.348571 195.291429-411.794285-27.428571-175.908571-173.714286-315.611429-350.72-335.36C320.365714-42.788571 114.468571 147.017143 114.468571 384c0 148.114286 80.822857 277.942857 200.411429 347.428571 11.337143 6.582857 19.017143 18.651429 19.017143 31.817143 0 27.794286-30.354286 46.445714-54.491429 32.548572-160.914286-92.891429-262.217143-277.211429-233.325714-482.011429 29.988571-211.017143 204.068571-378.88 416.182857-402.651428 286.72-31.817143 529.554286 192 529.554286 472.502857 0 176.274286-95.817143 329.874286-238.08 412.16-24.137143 14.262857-54.491429-4.388571-54.491429-32.182857zM516.754286 347.428571c-30.354286 0-54.857143 24.502857-54.857143 54.857143v402.285715c0 30.354286 24.502857 54.857143 54.857143 54.857142s54.857143-24.502857 54.857143-54.857142v-402.285715c-0.365714-30.354286-24.868571-54.857143-54.857143-54.857143z"  horiz-adv-x="1024" />

    


  </font>
</defs>
</svg>
